<svg width="18" height="18" viewBox="0 0 18 18" fill="none" xmlns="http://www.w3.org/2000/svg">
<path d="M16.8967 18L10.3208 11.4239C9.79729 11.8561 9.19526 12.1944 8.51472 12.4387C7.83417 12.683 7.13015 12.8051 6.40266 12.8051C4.61316 12.8051 3.09868 12.1856 1.85921 10.9465C0.619736 9.70737 0 8.19326 0 6.40414C0 4.61519 0.619561 3.10055 1.85868 1.86023C3.09781 0.620076 4.61194 0 6.40109 0C8.19006 0 9.70472 0.619726 10.9451 1.85918C12.1852 3.09863 12.8053 4.6131 12.8053 6.40257C12.8053 7.15029 12.6799 7.86442 12.4289 8.54496C12.1778 9.2255 11.8429 9.81739 11.4241 10.3206L18 16.8965L16.8967 18ZM6.40266 11.2349C7.75171 11.2349 8.89434 10.7667 9.83053 9.83039C10.7669 8.89421 11.2351 7.7516 11.2351 6.40257C11.2351 5.05353 10.7669 3.91092 9.83053 2.97474C8.89434 2.03839 7.75171 1.57021 6.40266 1.57021C5.0536 1.57021 3.91098 2.03839 2.97478 2.97474C2.03842 3.91092 1.57024 5.05353 1.57024 6.40257C1.57024 7.7516 2.03842 8.89421 2.97478 9.83039C3.91098 10.7667 5.0536 11.2349 6.40266 11.2349Z" fill="#111111"/>
</svg>
